name D:\school\WTK\thesis\model\3dpredictsim\Results\MidTarsalJoint\Fal_s1_bCst_PF_Gefen2002_ls150_MT_nl_Gefen2002_MTP_Mf1_spx10_PIM_w1e+03_w1e+04_ig23_v0.mot
datacolumns 128
datarows 4
range 1.12028280 1.15389128
endheader
time	pelvis_tilt	pelvis_list	pelvis_rotation	pelvis_tx	pelvis_ty	pelvis_tz	hip_flexion_l	hip_adduction_l	hip_rotation_l	hip_flexion_r	hip_adduction_r	hip_rotation_r	knee_angle_l	knee_angle_r	ankle_angle_l	ankle_angle_r	subtalar_angle_l	subtalar_angle_r	mtj_angle_l	mtj_angle_r	mtp_angle_l	mtp_angle_r	lumbar_extension	lumbar_bending	lumbar_rotation	arm_flex_l	arm_add_l	arm_rot_l	arm_flex_r	arm_add_r	arm_rot_r	elbow_flex_l	elbow_flex_r	pro_sup_l	pro_sup_r	glut_med1_l/activation	glut_med2_l/activation	glut_med3_l/activation	glut_min1_l/activation	glut_min2_l/activation	glut_min3_l/activation	semimem_l/activation	semiten_l/activation	bifemlh_l/activation	bifemsh_l/activation	sar_l/activation	add_long_l/activation	add_brev_l/activation	add_mag1_l/activation	add_mag2_l/activation	add_mag3_l/activation	tfl_l/activation	pect_l/activation	grac_l/activation	glut_max1_l/activation	glut_max2_l/activation	glut_max3_l/activation	iliacus_l/activation	psoas_l/activation	quad_fem_l/activation	gem_l/activation	peri_l/activation	rect_fem_l/activation	vas_med_l/activation	vas_int_l/activation	vas_lat_l/activation	med_gas_l/activation	lat_gas_l/activation	soleus_l/activation	tib_post_l/activation	flex_dig_l/activation	flex_hal_l/activation	tib_ant_l/activation	per_brev_l/activation	per_long_l/activation	per_tert_l/activation	ext_dig_l/activation	ext_hal_l/activation	ercspn_l/activation	intobl_l/activation	extobl_l/activation	glut_med1_r/activation	glut_med2_r/activation	glut_med3_r/activation	glut_min1_r/activation	glut_min2_r/activation	glut_min3_r/activation	semimem_r/activation	semiten_r/activation	bifemlh_r/activation	bifemsh_r/activation	sar_r/activation	add_long_r/activation	add_brev_r/activation	add_mag1_r/activation	add_mag2_r/activation	add_mag3_r/activation	tfl_r/activation	pect_r/activation	grac_r/activation	glut_max1_r/activation	glut_max2_r/activation	glut_max3_r/activation	iliacus_r/activation	psoas_r/activation	quad_fem_r/activation	gem_r/activation	peri_r/activation	rect_fem_r/activation	vas_med_r/activation	vas_int_r/activation	vas_lat_r/activation	med_gas_r/activation	lat_gas_r/activation	soleus_r/activation	tib_post_r/activation	flex_dig_r/activation	flex_hal_r/activation	tib_ant_r/activation	per_brev_r/activation	per_long_r/activation	per_tert_r/activation	ext_dig_r/activation	ext_hal_r/activation	ercspn_r/activation	intobl_r/activation	extobl_r/activation	
          1.12028280	         -2.92271010	         -1.23899610	          4.53518708	          1.40035350	          0.91689696	         -0.00426414	        -14.16155377	          1.36519158	          9.60741479	         28.12132689	          2.75273280	         -0.77521764	        -11.43644454	         -8.98500703	        -13.27500083	          1.47589183	          3.64134862	         -2.43106343	         23.89149220	          4.91004116	          7.84256466	          2.92252522	         -1.59518924	         -0.00734602	         -1.55407158	          5.31496824	        -13.45016131	         14.60475002	         -4.96562454	        -13.46384213	          9.16653001	         30.83711607	         15.28463984	         86.51662706	         86.51662706	          0.41338640	          0.17993309	          0.08225205	          0.35126393	          0.30687470	          0.17327093	          0.05000032	          0.05000005	          0.05000004	          0.05000004	          0.09587972	          0.05000001	          0.05000001	          0.05000004	          0.05000015	          0.05000013	          0.41146680	          0.05000006	          0.05000007	          0.05933544	          0.05721789	          0.05000029	          0.39288624	          0.56672726	          0.05000005	          0.05000048	          0.05000021	          0.30700903	          0.05674130	          0.05273989	          0.05007583	          0.31936438	          0.43052272	          0.42430285	          0.54744518	          0.44160221	          0.49955517	          0.05000000	          0.05000008	          0.15140505	          0.05000002	          0.05000001	          0.11767919	          0.05000000	          0.05000001	          0.06369119	          0.07041054	          0.05000004	          0.05933568	          0.05000001	          0.05000002	          0.05000014	          0.12984823	          0.07041455	          0.17892624	          0.07041446	          0.05000020	          0.11263875	          0.13685976	          0.13843253	          0.12989086	          0.10284842	          0.05000039	          0.05000035	          0.17688534	          0.05933578	          0.05933581	          0.08967843	          0.05000001	          0.05000001	          0.18733550	          0.05000035	          0.05000005	          0.05000000	          0.05000002	          0.05000002	          0.05000001	          0.05727055	          0.05360546	          0.05000006	          0.05353656	          0.05962141	          0.07041444	          0.47899224	          0.33573418	          0.07041468	          0.28156175	          0.48597939	          0.05933568	          0.05000001	          0.12041462	          0.12582295	
          1.13148563	         -2.92881331	         -1.32090550	          4.73417188	          1.41693052	          0.91639549	         -0.00397829	        -14.35918122	          1.07822985	          9.54002371	         27.61449487	          3.22405261	         -0.71669342	        -12.73827126	         -9.01836281	        -13.47525237	          0.82345521	          4.94879412	         -3.02805191	         22.45859376	          5.34976121	         10.08208164	          2.32456980	         -1.41522123	          0.19608753	         -1.63668821	          5.14028431	        -13.45529431	         15.00561043	         -5.81729285	        -13.45765115	          9.03446567	         31.84702891	         14.99345955	         86.51662706	         86.51662706	          0.34834556	          0.15162300	          0.06931078	          0.29599721	          0.25859204	          0.14600905	          0.05000019	          0.05000002	          0.05000002	          0.05000046	          0.08079435	          0.05000002	          0.05000002	          0.05000003	          0.05000010	          0.05000005	          0.34672823	          0.05000017	          0.05000005	          0.05000021	          0.05000007	          0.05000005	          0.33107078	          0.50980395	          0.05000000	          0.05000005	          0.05000013	          0.29758284	          0.05000004	          0.05000003	          0.05000002	          0.27691650	          0.37160690	          0.38821616	          0.46131189	          0.37212195	          0.42095682	          0.05000000	          0.05000003	          0.15545002	          0.05000001	          0.05000000	          0.09916394	          0.05000000	          0.05961989	          0.11458374	          0.05933568	          0.05933567	          0.05000001	          0.05933569	          0.05933568	          0.05000950	          0.10941833	          0.05933576	          0.15077456	          0.05933568	          0.05000002	          0.20140372	          0.31346319	          0.11665223	          0.16242705	          0.09049348	          0.05000003	          0.06769307	          0.14905489	          0.05000011	          0.05000011	          0.07556884	          0.05004166	          0.05000021	          0.38557825	          0.26277401	          0.09487602	          0.05000004	          0.08356168	          0.08198934	          0.07401001	          0.05000000	          0.05000002	          0.05000000	          0.05933568	          0.05933568	          0.05933568	          0.48734831	          0.28291083	          0.05933585	          0.29426117	          0.51140824	          0.05000000	          0.05000000	          0.10146897	          0.10602637	
          1.14268846	         -2.93017651	         -1.41444557	          4.90337373	          1.43384697	          0.91592728	         -0.00365790	        -14.52084730	          0.77784914	          9.45020671	         27.07285294	          3.64775696	         -0.63063191	        -14.08804155	         -9.57208753	        -13.68132678	         -0.12252764	          6.26892745	         -3.64465561	         20.66525069	          5.92447790	         12.63960274	          1.72212502	         -1.21639791	          0.41529643	         -1.71462893	          4.89073443	        -13.46608684	         15.36228242	         -6.69060464	        -13.45349988	          8.94056494	         32.82045030	         14.73623416	         86.51662706	         86.51662706	          0.29353799	          0.12776712	          0.05840570	          0.24942595	          0.21790600	          0.12303647	          0.05871893	          0.05933545	          0.05933532	          0.05000001	          0.06808244	          0.05933570	          0.05933571	          0.05933572	          0.05933575	          0.05933573	          0.29217534	          0.05933580	          0.05933574	          0.05001299	          0.05933567	          0.05933574	          0.27898116	          0.48174006	          0.05933571	          0.05933577	          0.05933577	          0.25368881	          0.05933589	          0.10839297	          0.11887476	          0.23475574	          0.31313997	          0.33660866	          0.38873054	          0.31357347	          0.35472482	          0.05000000	          0.05249659	          0.16034361	          0.05000001	          0.05000007	          0.08356181	          0.05000003	          0.08116351	          0.09655552	          0.05000000	          0.05000000	          0.09406650	          0.05000000	          0.05000000	          0.05000000	          0.09220280	          0.05000006	          0.12705217	          0.05000001	          0.08356178	          0.16971557	          0.26590413	          0.29153422	          0.18075578	          0.10997909	          0.05000003	          0.08336030	          0.12560321	          0.05000029	          0.05933571	          0.11080651	          0.07041246	          0.07041460	          0.61907886	          0.22142999	          0.07994853	          0.07041515	          0.07041470	          0.14326255	          0.10517153	          0.07316306	          0.07610392	          0.07624522	          0.05000000	          0.05000000	          0.05000000	          0.60708486	          0.35054780	          0.05000014	          0.49554906	          0.56754798	          0.07428580	          0.05000000	          0.08550416	          0.08934452	
          1.15389128	         -2.92771059	         -1.53285048	          5.04556239	          1.45103743	          0.91549497	         -0.00334557	        -14.65712963	          0.45245564	          9.32515453	         26.45259617	          3.95842927	         -0.52351735	        -15.44858447	        -10.25799604	        -13.85359310	         -1.07140114	          7.57970264	         -4.27429060	         18.42519338	          6.66052788	         15.55174194	          1.17239484	         -1.00249658	          0.66554205	         -1.78268404	          4.58102061	        -13.47368409	         15.68863703	         -7.57701712	        -13.45991553	          8.88336305	         33.74984747	         14.50715225	         86.51662706	         86.51662706	          0.32729951	          0.10766467	          0.06395599	          0.43603883	          0.21590465	          0.10367832	          0.05000013	          0.05000001	          0.05000001	          0.05437733	          0.10482331	          0.05000001	          0.05000002	          0.05000004	          0.05000009	          0.05000005	          0.27881397	          0.05000016	          0.05000007	          0.05000030	          0.05000012	          0.05000007	          0.26961113	          0.49112905	          0.05000002	          0.05000012	          0.05000012	          0.21377447	          0.05000018	          0.09133877	          0.10017139	          0.21317362	          0.26399763	          0.29707128	          0.32756890	          0.26423681	          0.29891355	          0.05000000	          0.16524519	          0.16704878	          0.05000005	          0.12602020	          0.07041446	          0.05362900	          0.06839350	          0.08136378	          0.31673563	          0.30201573	          0.32526082	          0.39614860	          0.33380933	          0.30865060	          0.10080661	          0.10605015	          0.11997311	          0.10666794	          0.07041447	          0.14301306	          0.22406763	          0.24566516	          0.15231625	          0.09458701	          0.05000037	          0.07024476	          0.10654506	          0.05000002	          0.05000004	          0.09337257	          0.05933577	          0.05933580	          0.52167496	          0.18659091	          0.10834194	          0.05933626	          0.05933588	          0.12072207	          0.08862418	          0.06165182	          0.06412997	          0.06424904	          0.05000000	          0.05000008	          0.05000009	          0.67544231	          0.29539372	          0.13748000	          0.71122320	          0.63787554	          0.06259792	          0.05978424	          0.13965159	          0.07528733	
